<svg width="716" height="716" viewBox="0 0 716 716" fill="none" xmlns="http://www.w3.org/2000/svg">
<path d="M536.65 536.65C635.444 437.855 635.444 277.678 536.65 178.883C437.855 80.0888 277.678 80.0888 178.883 178.883C80.0888 277.678 80.0887 437.855 178.883 536.65C277.678 635.444 437.855 635.444 536.65 536.65Z" fill="#83FF5D"/>
<path d="M490.123 141.869C515.321 181.193 529.922 227.967 529.922 278.123C529.922 417.82 416.669 531.102 276.943 531.102C228.419 531.102 183.1 517.42 144.607 493.737C189.57 563.927 268.247 610.433 357.787 610.433C497.484 610.433 610.766 497.18 610.766 357.454C610.766 266.252 562.509 186.357 490.153 141.84L490.123 141.869Z" fill="#80FD53"/>
<path d="M139.176 384.461C139.176 254.736 244.327 149.586 374.051 149.586C449.88 149.586 517.279 185.526 560.224 241.292C519.654 170.895 443.647 123.498 356.571 123.498C226.846 123.498 121.695 228.649 121.695 358.374C121.695 412.27 139.859 461.922 170.398 501.542C150.543 467.086 139.176 427.109 139.176 384.491V384.461Z" fill="#B0FF7F"/>
<path d="M254.091 396.065C247.561 389.744 237.144 396.748 240.498 405.177C259.195 451.891 304.841 484.863 358.232 484.863C411.624 484.863 455.756 452.959 474.987 407.491C478.49 399.211 467.983 392.029 461.513 398.291C424.504 434.172 345.886 485.249 254.091 396.065Z" fill="#5E4939"/>
<path d="M283.205 312.52C283.205 329.882 274.866 343.95 264.567 343.95C254.269 343.95 245.929 329.882 245.929 312.52C245.929 295.159 254.269 281.091 264.567 281.091C274.866 281.091 283.205 295.159 283.205 312.52Z" fill="#303030"/>
<path d="M469.615 312.52C469.615 329.882 461.276 343.95 450.977 343.95C440.679 343.95 432.339 329.882 432.339 312.52C432.339 295.159 440.679 281.091 450.977 281.091C461.276 281.091 469.615 295.159 469.615 312.52Z" fill="#303030"/>
</svg>
