<svg width="716" height="716" viewBox="0 0 716 716" fill="none" xmlns="http://www.w3.org/2000/svg">
<path d="M536.65 536.65C635.444 437.855 635.444 277.678 536.65 178.883C437.855 80.0889 277.678 80.0889 178.883 178.883C80.0887 277.678 80.0888 437.855 178.883 536.65C277.678 635.444 437.855 635.444 536.65 536.65Z" fill="#5DB6FF"/>
<path d="M490.107 141.857C515.304 181.181 529.906 227.954 529.906 278.111C529.906 417.808 416.653 531.09 276.926 531.09C228.402 531.09 183.083 517.409 144.59 493.725C189.553 563.915 268.231 610.421 357.771 610.421C497.467 610.421 610.75 497.168 610.75 357.442C610.75 266.24 562.492 186.345 490.136 141.828L490.107 141.857Z" fill="#53B6FD"/>
<path d="M139.189 384.449C139.189 254.724 244.339 149.574 374.064 149.574C449.892 149.574 517.292 185.514 560.237 241.28C519.666 170.883 443.66 123.486 356.583 123.486C226.859 123.486 121.708 228.637 121.708 358.362C121.708 412.258 139.871 461.91 170.41 501.53C150.556 467.074 139.189 427.097 139.189 384.479V384.449Z" fill="#7FBBFF"/>
<path d="M301.553 320.967C306.684 289.352 285.216 259.564 253.602 254.432C221.988 249.301 192.199 270.769 187.068 302.383C181.936 333.997 203.404 363.785 235.018 368.917C266.633 374.049 296.421 352.581 301.553 320.967Z" fill="white"/>
<path d="M284.85 270.276C274.374 259.978 260.039 253.597 244.191 253.597C233.477 253.597 223.505 256.535 214.898 261.61C213.147 263.865 212.019 266.388 211.752 269.118C210.624 281.227 226.235 292.564 246.624 294.494C267.014 296.393 284.465 288.142 285.592 276.034C285.77 274.075 285.474 272.175 284.85 270.276Z" fill="#303030"/>
<path d="M512.347 352.582C534.994 329.935 534.994 293.217 512.347 270.57C489.7 247.923 452.982 247.923 430.335 270.57C407.687 293.217 407.687 329.935 430.334 352.583C452.982 375.23 489.7 375.23 512.347 352.582Z" fill="white"/>
<path d="M512.009 270.276C501.532 259.978 487.197 253.597 471.349 253.597C460.635 253.597 450.663 256.535 442.057 261.61C440.306 263.865 439.178 266.388 438.91 269.118C437.783 281.227 453.394 292.564 473.783 294.494C494.172 296.393 511.623 288.142 512.75 276.034C512.929 274.075 512.632 272.175 512.009 270.276Z" fill="#303030"/>
<path d="M451.911 415.73C439.831 403.77 423.301 394.985 404.099 390.296C386.559 386.081 367.713 385.755 349.55 389.287C331.802 392.729 314.499 399.912 299.452 410.062C283.485 420.954 271.11 433.982 262.651 448.762C261.346 451.018 261.701 453.867 263.482 455.766C264.64 456.983 266.213 457.636 267.815 457.636C268.706 457.636 269.596 457.428 270.427 457.013L275.977 454.282C289.006 447.842 301.293 441.758 313.787 436.861C328.063 431.163 342.367 426.919 356.316 424.248C370.829 421.458 385.579 420.182 400.122 420.479C413.625 420.686 427.99 422.319 446.687 425.761C449.239 426.236 451.822 424.99 453.038 422.675C454.255 420.36 453.81 417.54 451.94 415.7L451.911 415.73Z" fill="#5E4939"/>
</svg>
