<svg width="716" height="716" viewBox="0 0 716 716" fill="none" xmlns="http://www.w3.org/2000/svg">
<path d="M536.65 536.65C635.444 437.855 635.444 277.678 536.65 178.883C437.855 80.0888 277.678 80.0888 178.883 178.883C80.0888 277.678 80.0887 437.855 178.883 536.65C277.678 635.444 437.855 635.444 536.65 536.65Z" fill="#BE5DFF"/>
<path d="M490.118 141.875C515.315 181.199 529.917 227.972 529.917 278.129C529.917 417.825 416.664 531.108 276.938 531.108C228.414 531.108 183.095 517.426 144.602 493.742C189.565 563.932 268.242 610.438 357.782 610.438C497.479 610.438 610.761 497.185 610.761 357.459C610.761 266.257 562.504 186.363 490.148 141.845L490.118 141.875Z" fill="#B953FD"/>
<path d="M139.171 384.466C139.171 254.742 244.322 149.591 374.046 149.591C449.875 149.591 517.274 185.532 560.219 241.297C519.649 170.9 443.642 123.504 356.565 123.504C226.841 123.504 121.69 228.654 121.69 358.379C121.69 412.275 139.853 461.927 170.393 501.548C150.538 467.091 139.171 427.114 139.171 384.496V384.466Z" fill="#B97FFF"/>
<path d="M283.2 340.542C283.2 357.904 274.861 371.972 264.562 371.972C254.264 371.972 245.924 357.904 245.924 340.542C245.924 323.18 254.264 309.113 264.562 309.113C274.861 309.113 283.2 323.18 283.2 340.542Z" fill="#303030"/>
<path d="M469.611 340.542C469.611 357.904 461.271 371.972 450.972 371.972C440.674 371.972 432.334 357.904 432.334 340.542C432.334 323.18 440.674 309.113 450.972 309.113C461.271 309.113 469.611 323.18 469.611 340.542Z" fill="#303030"/>
<path d="M275.484 454.804C287.563 442.844 304.094 434.059 323.296 429.37C340.836 425.155 359.681 424.829 377.845 428.361C395.592 431.804 412.895 438.986 427.942 449.136C443.909 460.028 456.285 473.057 464.743 487.836C466.049 490.092 465.693 492.941 463.912 494.84C462.755 496.057 461.182 496.71 459.579 496.71C458.689 496.71 457.799 496.503 456.968 496.087L451.418 493.357C438.389 486.916 426.102 480.832 413.607 475.935C399.332 470.237 385.027 465.993 371.078 463.322C356.565 460.532 341.815 459.256 327.273 459.553C313.769 459.76 299.405 461.393 280.737 464.836C278.185 465.31 275.602 464.064 274.386 461.749C273.169 459.434 273.614 456.615 275.484 454.775V454.804Z" fill="#5E4939"/>
<path d="M603.312 292.226C593.34 254.89 575.058 220.968 550.633 192.506L182.442 173.215C155.049 199.124 133.413 231.058 119.642 266.91L603.342 292.255L603.312 292.226Z" fill="#F1F2F2"/>
<path d="M203.009 271.035L480.681 188.826L248.803 273.677L203.009 271.035Z" fill="#E6E7E8"/>
<path d="M173.865 181.674C142.999 213.756 120.444 253.911 109.73 298.666L532.499 173.482C500.239 142.884 459.995 120.655 415.18 110.208L173.865 181.674Z" fill="white"/>
<path d="M161.875 194.999L467.029 128.312C450.646 120.476 433.284 114.422 415.21 110.208L173.895 181.674C169.74 185.977 165.733 190.399 161.904 194.999H161.875Z" fill="#F9F9F9"/>
<path d="M203.84 293.116C206.571 292.315 209.212 291.573 211.794 290.86C217.492 289.258 222.834 287.774 228.028 285.963C235.774 283.352 242.749 280.384 249.337 276.912C256.282 273.231 262.574 269.165 268.598 264.417C275.187 259.312 281.301 253.317 286.94 247.619C287.266 247.292 287.741 247.203 288.157 247.381C288.572 247.559 288.839 247.975 288.809 248.45C288.394 257.086 284.981 266.019 278.927 274.27C273.407 281.749 265.987 288.041 257.528 292.463C249.545 296.648 240.641 299.23 231.679 299.883C231.322 299.883 230.996 299.942 230.64 299.942C220.579 300.476 211.527 298.874 203.662 295.164C203.247 294.956 203.009 294.54 203.039 294.095C203.069 293.65 203.395 293.264 203.84 293.116Z" fill="#414042"/>
</svg>
