<svg width="716" height="716" viewBox="0 0 716 716" fill="none" xmlns="http://www.w3.org/2000/svg">
<path d="M536.65 536.65C635.444 437.855 635.444 277.678 536.65 178.883C437.855 80.0889 277.678 80.0889 178.883 178.883C80.0887 277.678 80.0888 437.855 178.883 536.65C277.678 635.444 437.855 635.444 536.65 536.65Z" fill="#FF5D5D"/>
<path d="M490.112 141.852C515.309 181.176 529.911 227.949 529.911 278.106C529.911 417.802 416.658 531.085 276.932 531.085C228.407 531.085 183.088 517.403 144.595 493.72C189.558 563.91 268.236 610.416 357.776 610.416C497.472 610.416 610.755 497.163 610.755 357.437C610.755 266.235 562.498 186.34 490.141 141.823L490.112 141.852Z" fill="#FD5953"/>
<path d="M139.194 384.444C139.194 254.72 244.345 149.569 374.069 149.569C449.898 149.569 517.297 185.509 560.242 241.275C519.672 170.878 443.665 123.481 356.588 123.481C226.864 123.481 121.713 228.632 121.713 358.357C121.713 412.253 139.876 461.905 170.416 501.526C150.561 467.069 139.194 427.092 139.194 384.474V384.444Z" fill="#FF7F7F" fill-opacity="0.31"/>
<path d="M264.585 342.122C274.879 342.122 283.223 328.051 283.223 310.693C283.223 293.335 274.879 279.263 264.585 279.263C254.292 279.263 245.947 293.335 245.947 310.693C245.947 328.051 254.292 342.122 264.585 342.122Z" fill="#303030"/>
<path d="M469.604 310.693C469.604 328.055 461.264 342.122 450.966 342.122C440.667 342.122 432.328 328.055 432.328 310.693C432.328 293.331 440.667 279.263 450.966 279.263C461.264 279.263 469.604 293.331 469.604 310.693Z" fill="#303030"/>
<path d="M260.527 210.351L243.57 227.307L300.169 283.906L317.125 266.949L260.527 210.351Z" fill="#303030"/>
<path d="M471.998 227.324L455.042 210.367L398.443 266.966L415.399 283.923L471.998 227.324Z" fill="#303030"/>
<path d="M450.966 473.539C445.564 417.684 405.766 374.323 357.568 374.412C309.34 374.502 269.749 418.04 264.585 473.924L450.966 473.509V473.539Z" fill="#695342"/>
<path d="M264.585 473.925C264.585 473.925 343.055 395.188 450.966 473.509L264.585 473.925Z" fill="#F06669"/>
</svg>
