<svg width="716" height="716" viewBox="0 0 716 716" fill="none" xmlns="http://www.w3.org/2000/svg">
<path d="M536.65 536.65C635.444 437.855 635.444 277.678 536.65 178.883C437.855 80.0888 277.678 80.0888 178.883 178.883C80.0888 277.678 80.0888 437.855 178.883 536.65C277.678 635.444 437.855 635.444 536.65 536.65Z" fill="#FFD05D"/>
<path d="M490.11 141.856C515.307 181.18 529.909 227.953 529.909 278.11C529.909 417.806 416.656 531.089 276.93 531.089C228.406 531.089 183.087 517.407 144.594 493.724C189.557 563.913 268.234 610.419 357.774 610.419C497.471 610.419 610.753 497.166 610.753 357.44C610.753 266.238 562.496 186.344 490.14 141.826L490.11 141.856Z" fill="#FDC453"/>
<path d="M139.162 384.447C139.162 254.723 244.343 149.572 374.038 149.572C449.866 149.572 517.266 185.513 560.21 241.279C519.67 170.852 443.634 123.455 356.557 123.455C226.832 123.455 121.682 228.606 121.682 358.33C121.682 412.226 139.845 461.878 170.384 501.499C150.529 467.043 139.162 427.066 139.162 384.447Z" fill="#FFD77F"/>
<path d="M283.192 296.391C283.192 313.753 274.853 327.821 264.554 327.821C254.256 327.821 245.916 313.753 245.916 296.391C245.916 279.029 254.256 264.962 264.554 264.962C274.853 264.962 283.192 279.029 283.192 296.391Z" fill="#303030"/>
<path d="M469.602 296.391C469.602 313.753 461.263 327.821 450.964 327.821C440.666 327.821 432.326 313.753 432.326 296.391C432.326 279.029 440.666 264.962 450.964 264.962C461.263 264.962 469.602 279.029 469.602 296.391Z" fill="#303030"/>
<path d="M187.776 381.688C197.421 467.043 269.807 533.404 357.774 533.404C445.741 533.404 518.127 467.043 527.743 381.688H187.776Z" fill="#695342"/>
<path d="M240.336 486.69C270.965 515.626 312.277 533.403 357.744 533.403C403.212 533.403 440.963 517.14 471.146 490.37L469.573 486.69C355.429 431.013 241.88 485.918 240.336 486.69Z" fill="#F06669"/>
</svg>
